<svg xmlns="http://www.w3.org/2000/svg" viewBox="0 0 800 400" width="800" height="400">
<rect width="800" height="400" fill="white"/>
<defs><linearGradient id="areaGrad" x1="0" y1="0" x2="0" y2="1"><stop offset="0%" stop-color="#4A90D9" stop-opacity="0.3"/><stop offset="100%" stop-color="#4A90D9" stop-opacity="0.05"/></linearGradient></defs>
<line x1="80" y1="331.3" x2="760" y2="331.3" stroke="#E5E5E5" stroke-width="1"/>
<text x="72" y="335.3" text-anchor="end" font-family="system-ui, sans-serif" font-size="12" fill="#666">100k</text>
<line x1="80" y1="271.5" x2="760" y2="271.5" stroke="#E5E5E5" stroke-width="1"/>
<text x="72" y="275.5" text-anchor="end" font-family="system-ui, sans-serif" font-size="12" fill="#666">200k</text>
<line x1="80" y1="211.7" x2="760" y2="211.7" stroke="#E5E5E5" stroke-width="1"/>
<text x="72" y="215.7" text-anchor="end" font-family="system-ui, sans-serif" font-size="12" fill="#666">300k</text>
<line x1="80" y1="151.9" x2="760" y2="151.9" stroke="#E5E5E5" stroke-width="1"/>
<text x="72" y="155.9" text-anchor="end" font-family="system-ui, sans-serif" font-size="12" fill="#666">400k</text>
<line x1="80" y1="92.1" x2="760" y2="92.1" stroke="#E5E5E5" stroke-width="1"/>
<text x="72" y="96.1" text-anchor="end" font-family="system-ui, sans-serif" font-size="12" fill="#666">500k</text>
<text x="80.0" y="360" text-anchor="middle" font-family="system-ui, sans-serif" font-size="12" fill="#666">Jul 2026</text>
<text x="193.3" y="360" text-anchor="middle" font-family="system-ui, sans-serif" font-size="12" fill="#666">Jul 2026</text>
<text x="306.7" y="360" text-anchor="middle" font-family="system-ui, sans-serif" font-size="12" fill="#666">Jul 2026</text>
<text x="420.0" y="360" text-anchor="middle" font-family="system-ui, sans-serif" font-size="12" fill="#666">Jul 2026</text>
<text x="533.3" y="360" text-anchor="middle" font-family="system-ui, sans-serif" font-size="12" fill="#666">Jul 2026</text>
<text x="646.7" y="360" text-anchor="middle" font-family="system-ui, sans-serif" font-size="12" fill="#666">Jul 2026</text>
<text x="760.0" y="360" text-anchor="middle" font-family="system-ui, sans-serif" font-size="12" fill="#666">Jul 2026</text>
<path d="M80.0,340.0 L80.0,315.0 L80.1,314.7 L80.6,314.4 L80.7,313.8 L81.2,313.6 L81.3,313.5 L82.2,313.2 L82.3,313.0 L83.9,312.7 L84.3,312.4 L109.3,312.3 L109.6,312.2 L109.7,312.1 L110.2,311.8 L110.9,311.6 L111.1,310.8 L111.4,310.7 L111.5,310.5 L116.1,310.2 L120.4,309.8 L120.5,309.7 L120.7,309.3 L122.7,308.5 L123.3,308.3 L123.9,308.2 L546.4,307.9 L548.3,307.2 L668.5,307.1 L668.5,306.9 L669.1,306.8 L670.3,77.3 L670.8,77.2 L671.5,77.1 L671.6,77.0 L671.6,76.9 L671.7,75.8 L675.1,75.7 L676.0,75.5 L676.2,75.4 L676.3,75.3 L678.8,75.2 L679.1,75.0 L679.4,74.9 L679.9,74.6 L685.9,74.5 L686.1,74.4 L686.8,65.4 L691.9,65.2 L692.1,65.1 L760.0,65.0 L760.0,340.0Z" fill="url(#areaGrad)"/>
<path d="M80.0,315.0 L80.1,314.7 L80.6,314.4 L80.7,313.8 L81.2,313.6 L81.3,313.5 L82.2,313.2 L82.3,313.0 L83.9,312.7 L84.3,312.4 L109.3,312.3 L109.6,312.2 L109.7,312.1 L110.2,311.8 L110.9,311.6 L111.1,310.8 L111.4,310.7 L111.5,310.5 L116.1,310.2 L120.4,309.8 L120.5,309.7 L120.7,309.3 L122.7,308.5 L123.3,308.3 L123.9,308.2 L546.4,307.9 L548.3,307.2 L668.5,307.1 L668.5,306.9 L669.1,306.8 L670.3,77.3 L670.8,77.2 L671.5,77.1 L671.6,77.0 L671.6,76.9 L671.7,75.8 L675.1,75.7 L676.0,75.5 L676.2,75.4 L676.3,75.3 L678.8,75.2 L679.1,75.0 L679.4,74.9 L679.9,74.6 L685.9,74.5 L686.1,74.4 L686.8,65.4 L691.9,65.2 L692.1,65.1 L760.0,65.0" fill="none" stroke="#4A90D9" stroke-width="2.5" stroke-linejoin="round" stroke-linecap="round"/>
<circle cx="80.0" cy="315.0" r="3.5" fill="white" stroke="#4A90D9" stroke-width="2"/>
<circle cx="80.1" cy="314.7" r="3.5" fill="white" stroke="#4A90D9" stroke-width="2"/>
<circle cx="80.6" cy="314.4" r="3.5" fill="white" stroke="#4A90D9" stroke-width="2"/>
<circle cx="80.7" cy="313.8" r="3.5" fill="white" stroke="#4A90D9" stroke-width="2"/>
<circle cx="81.2" cy="313.6" r="3.5" fill="white" stroke="#4A90D9" stroke-width="2"/>
<circle cx="81.3" cy="313.5" r="3.5" fill="white" stroke="#4A90D9" stroke-width="2"/>
<circle cx="82.2" cy="313.2" r="3.5" fill="white" stroke="#4A90D9" stroke-width="2"/>
<circle cx="82.3" cy="313.0" r="3.5" fill="white" stroke="#4A90D9" stroke-width="2"/>
<circle cx="83.9" cy="312.7" r="3.5" fill="white" stroke="#4A90D9" stroke-width="2"/>
<circle cx="84.3" cy="312.4" r="3.5" fill="white" stroke="#4A90D9" stroke-width="2"/>
<circle cx="109.3" cy="312.3" r="3.5" fill="white" stroke="#4A90D9" stroke-width="2"/>
<circle cx="109.6" cy="312.2" r="3.5" fill="white" stroke="#4A90D9" stroke-width="2"/>
<circle cx="109.7" cy="312.1" r="3.5" fill="white" stroke="#4A90D9" stroke-width="2"/>
<circle cx="110.2" cy="311.8" r="3.5" fill="white" stroke="#4A90D9" stroke-width="2"/>
<circle cx="110.9" cy="311.6" r="3.5" fill="white" stroke="#4A90D9" stroke-width="2"/>
<circle cx="111.1" cy="310.8" r="3.5" fill="white" stroke="#4A90D9" stroke-width="2"/>
<circle cx="111.4" cy="310.7" r="3.5" fill="white" stroke="#4A90D9" stroke-width="2"/>
<circle cx="111.5" cy="310.5" r="3.5" fill="white" stroke="#4A90D9" stroke-width="2"/>
<circle cx="116.1" cy="310.2" r="3.5" fill="white" stroke="#4A90D9" stroke-width="2"/>
<circle cx="120.4" cy="309.8" r="3.5" fill="white" stroke="#4A90D9" stroke-width="2"/>
<circle cx="120.5" cy="309.7" r="3.5" fill="white" stroke="#4A90D9" stroke-width="2"/>
<circle cx="120.7" cy="309.3" r="3.5" fill="white" stroke="#4A90D9" stroke-width="2"/>
<circle cx="122.7" cy="308.5" r="3.5" fill="white" stroke="#4A90D9" stroke-width="2"/>
<circle cx="123.3" cy="308.3" r="3.5" fill="white" stroke="#4A90D9" stroke-width="2"/>
<circle cx="123.9" cy="308.2" r="3.5" fill="white" stroke="#4A90D9" stroke-width="2"/>
<circle cx="546.4" cy="307.9" r="3.5" fill="white" stroke="#4A90D9" stroke-width="2"/>
<circle cx="548.3" cy="307.2" r="3.5" fill="white" stroke="#4A90D9" stroke-width="2"/>
<circle cx="668.5" cy="307.1" r="3.5" fill="white" stroke="#4A90D9" stroke-width="2"/>
<circle cx="668.5" cy="306.9" r="3.5" fill="white" stroke="#4A90D9" stroke-width="2"/>
<circle cx="669.1" cy="306.8" r="3.5" fill="white" stroke="#4A90D9" stroke-width="2"/>
<circle cx="670.3" cy="77.3" r="3.5" fill="white" stroke="#4A90D9" stroke-width="2"/>
<circle cx="670.8" cy="77.2" r="3.5" fill="white" stroke="#4A90D9" stroke-width="2"/>
<circle cx="671.5" cy="77.1" r="3.5" fill="white" stroke="#4A90D9" stroke-width="2"/>
<circle cx="671.6" cy="77.0" r="3.5" fill="white" stroke="#4A90D9" stroke-width="2"/>
<circle cx="671.6" cy="76.9" r="3.5" fill="white" stroke="#4A90D9" stroke-width="2"/>
<circle cx="671.7" cy="75.8" r="3.5" fill="white" stroke="#4A90D9" stroke-width="2"/>
<circle cx="675.1" cy="75.7" r="3.5" fill="white" stroke="#4A90D9" stroke-width="2"/>
<circle cx="676.0" cy="75.5" r="3.5" fill="white" stroke="#4A90D9" stroke-width="2"/>
<circle cx="676.2" cy="75.4" r="3.5" fill="white" stroke="#4A90D9" stroke-width="2"/>
<circle cx="676.3" cy="75.3" r="3.5" fill="white" stroke="#4A90D9" stroke-width="2"/>
<circle cx="678.8" cy="75.2" r="3.5" fill="white" stroke="#4A90D9" stroke-width="2"/>
<circle cx="679.1" cy="75.0" r="3.5" fill="white" stroke="#4A90D9" stroke-width="2"/>
<circle cx="679.4" cy="74.9" r="3.5" fill="white" stroke="#4A90D9" stroke-width="2"/>
<circle cx="679.9" cy="74.6" r="3.5" fill="white" stroke="#4A90D9" stroke-width="2"/>
<circle cx="685.9" cy="74.5" r="3.5" fill="white" stroke="#4A90D9" stroke-width="2"/>
<circle cx="686.1" cy="74.4" r="3.5" fill="white" stroke="#4A90D9" stroke-width="2"/>
<circle cx="686.8" cy="65.4" r="3.5" fill="white" stroke="#4A90D9" stroke-width="2"/>
<circle cx="691.9" cy="65.2" r="3.5" fill="white" stroke="#4A90D9" stroke-width="2"/>
<circle cx="692.1" cy="65.1" r="3.5" fill="white" stroke="#4A90D9" stroke-width="2"/>
<circle cx="760.0" cy="65.0" r="3.5" fill="white" stroke="#4A90D9" stroke-width="2"/>
<text x="80" y="24" font-family="system-ui, sans-serif" font-size="16" font-weight="600" fill="#333">Lines of Code</text>
<line x1="80" y1="40" x2="80" y2="340" stroke="#CCC" stroke-width="1"/><line x1="80" y1="340" x2="760" y2="340" stroke="#CCC" stroke-width="1"/>
</svg>