<svg xmlns="http://www.w3.org/2000/svg" viewBox="0 0 800 400" width="800" height="400">
<rect width="800" height="400" fill="white"/>
<defs><linearGradient id="areaGrad" x1="0" y1="0" x2="0" y2="1"><stop offset="0%" stop-color="#4A90D9" stop-opacity="0.3"/><stop offset="100%" stop-color="#4A90D9" stop-opacity="0.05"/></linearGradient></defs>
<line x1="80" y1="325.6" x2="760" y2="325.6" stroke="#E5E5E5" stroke-width="1"/>
<text x="72" y="329.6" text-anchor="end" font-family="system-ui, sans-serif" font-size="12" fill="#666">127k</text>
<line x1="80" y1="274.2" x2="760" y2="274.2" stroke="#E5E5E5" stroke-width="1"/>
<text x="72" y="278.2" text-anchor="end" font-family="system-ui, sans-serif" font-size="12" fill="#666">128k</text>
<line x1="80" y1="222.8" x2="760" y2="222.8" stroke="#E5E5E5" stroke-width="1"/>
<text x="72" y="226.8" text-anchor="end" font-family="system-ui, sans-serif" font-size="12" fill="#666">129k</text>
<line x1="80" y1="171.5" x2="760" y2="171.5" stroke="#E5E5E5" stroke-width="1"/>
<text x="72" y="175.5" text-anchor="end" font-family="system-ui, sans-serif" font-size="12" fill="#666">130k</text>
<line x1="80" y1="120.1" x2="760" y2="120.1" stroke="#E5E5E5" stroke-width="1"/>
<text x="72" y="124.1" text-anchor="end" font-family="system-ui, sans-serif" font-size="12" fill="#666">131k</text>
<line x1="80" y1="68.7" x2="760" y2="68.7" stroke="#E5E5E5" stroke-width="1"/>
<text x="72" y="72.7" text-anchor="end" font-family="system-ui, sans-serif" font-size="12" fill="#666">132k</text>
<text x="80.0" y="360" text-anchor="middle" font-family="system-ui, sans-serif" font-size="12" fill="#666">Jul 2026</text>
<text x="193.3" y="360" text-anchor="middle" font-family="system-ui, sans-serif" font-size="12" fill="#666">Jul 2026</text>
<text x="306.7" y="360" text-anchor="middle" font-family="system-ui, sans-serif" font-size="12" fill="#666">Jul 2026</text>
<text x="420.0" y="360" text-anchor="middle" font-family="system-ui, sans-serif" font-size="12" fill="#666">Jul 2026</text>
<text x="533.3" y="360" text-anchor="middle" font-family="system-ui, sans-serif" font-size="12" fill="#666">Jul 2026</text>
<text x="646.7" y="360" text-anchor="middle" font-family="system-ui, sans-serif" font-size="12" fill="#666">Jul 2026</text>
<text x="760.0" y="360" text-anchor="middle" font-family="system-ui, sans-serif" font-size="12" fill="#666">Jul 2026</text>
<path d="M80.0,340.0 L80.0,315.0 L82.6,289.0 L93.0,263.8 L96.1,209.3 L106.6,196.0 L110.2,182.0 L130.5,164.4 L132.0,139.4 L170.1,121.4 L179.2,92.3 L750.8,83.5 L757.4,73.5 L760.0,65.0 L760.0,340.0Z" fill="url(#areaGrad)"/>
<path d="M80.0,315.0 L82.6,289.0 L93.0,263.8 L96.1,209.3 L106.6,196.0 L110.2,182.0 L130.5,164.4 L132.0,139.4 L170.1,121.4 L179.2,92.3 L750.8,83.5 L757.4,73.5 L760.0,65.0" fill="none" stroke="#4A90D9" stroke-width="2.5" stroke-linejoin="round" stroke-linecap="round"/>
<circle cx="80.0" cy="315.0" r="3.5" fill="white" stroke="#4A90D9" stroke-width="2"/>
<circle cx="82.6" cy="289.0" r="3.5" fill="white" stroke="#4A90D9" stroke-width="2"/>
<circle cx="93.0" cy="263.8" r="3.5" fill="white" stroke="#4A90D9" stroke-width="2"/>
<circle cx="96.1" cy="209.3" r="3.5" fill="white" stroke="#4A90D9" stroke-width="2"/>
<circle cx="106.6" cy="196.0" r="3.5" fill="white" stroke="#4A90D9" stroke-width="2"/>
<circle cx="110.2" cy="182.0" r="3.5" fill="white" stroke="#4A90D9" stroke-width="2"/>
<circle cx="130.5" cy="164.4" r="3.5" fill="white" stroke="#4A90D9" stroke-width="2"/>
<circle cx="132.0" cy="139.4" r="3.5" fill="white" stroke="#4A90D9" stroke-width="2"/>
<circle cx="170.1" cy="121.4" r="3.5" fill="white" stroke="#4A90D9" stroke-width="2"/>
<circle cx="179.2" cy="92.3" r="3.5" fill="white" stroke="#4A90D9" stroke-width="2"/>
<circle cx="750.8" cy="83.5" r="3.5" fill="white" stroke="#4A90D9" stroke-width="2"/>
<circle cx="757.4" cy="73.5" r="3.5" fill="white" stroke="#4A90D9" stroke-width="2"/>
<circle cx="760.0" cy="65.0" r="3.5" fill="white" stroke="#4A90D9" stroke-width="2"/>
<text x="80" y="24" font-family="system-ui, sans-serif" font-size="16" font-weight="600" fill="#333">Lines of Code</text>
<line x1="80" y1="40" x2="80" y2="340" stroke="#CCC" stroke-width="1"/><line x1="80" y1="340" x2="760" y2="340" stroke="#CCC" stroke-width="1"/>
</svg>