<svg xmlns="http://www.w3.org/2000/svg" viewBox="0 0 800 400" width="800" height="400">
<rect width="800" height="400" fill="white"/>
<defs><linearGradient id="areaGrad" x1="0" y1="0" x2="0" y2="1"><stop offset="0%" stop-color="#4A90D9" stop-opacity="0.3"/><stop offset="100%" stop-color="#4A90D9" stop-opacity="0.05"/></linearGradient></defs>
<line x1="80" y1="331.3" x2="760" y2="331.3" stroke="#E5E5E5" stroke-width="1"/>
<text x="72" y="335.3" text-anchor="end" font-family="system-ui, sans-serif" font-size="12" fill="#666">100k</text>
<line x1="80" y1="271.5" x2="760" y2="271.5" stroke="#E5E5E5" stroke-width="1"/>
<text x="72" y="275.5" text-anchor="end" font-family="system-ui, sans-serif" font-size="12" fill="#666">200k</text>
<line x1="80" y1="211.7" x2="760" y2="211.7" stroke="#E5E5E5" stroke-width="1"/>
<text x="72" y="215.7" text-anchor="end" font-family="system-ui, sans-serif" font-size="12" fill="#666">300k</text>
<line x1="80" y1="152.0" x2="760" y2="152.0" stroke="#E5E5E5" stroke-width="1"/>
<text x="72" y="156.0" text-anchor="end" font-family="system-ui, sans-serif" font-size="12" fill="#666">400k</text>
<line x1="80" y1="92.2" x2="760" y2="92.2" stroke="#E5E5E5" stroke-width="1"/>
<text x="72" y="96.2" text-anchor="end" font-family="system-ui, sans-serif" font-size="12" fill="#666">500k</text>
<text x="80.0" y="360" text-anchor="middle" font-family="system-ui, sans-serif" font-size="12" fill="#666">Jul 2026</text>
<text x="193.3" y="360" text-anchor="middle" font-family="system-ui, sans-serif" font-size="12" fill="#666">Jul 2026</text>
<text x="306.7" y="360" text-anchor="middle" font-family="system-ui, sans-serif" font-size="12" fill="#666">Jul 2026</text>
<text x="420.0" y="360" text-anchor="middle" font-family="system-ui, sans-serif" font-size="12" fill="#666">Jul 2026</text>
<text x="533.3" y="360" text-anchor="middle" font-family="system-ui, sans-serif" font-size="12" fill="#666">Jul 2026</text>
<text x="646.7" y="360" text-anchor="middle" font-family="system-ui, sans-serif" font-size="12" fill="#666">Jul 2026</text>
<text x="760.0" y="360" text-anchor="middle" font-family="system-ui, sans-serif" font-size="12" fill="#666">Jul 2026</text>
<path d="M80.0,340.0 L80.0,315.0 L80.1,314.7 L80.6,314.4 L80.7,313.8 L81.1,313.6 L81.3,313.5 L82.2,313.2 L82.2,313.0 L83.9,312.7 L84.3,312.4 L109.0,312.3 L109.2,312.2 L109.4,312.1 L109.9,311.8 L110.6,311.6 L110.8,310.8 L111.0,310.7 L111.1,310.5 L115.6,310.3 L119.9,309.8 L120.0,309.7 L120.2,309.3 L122.1,308.5 L122.7,308.3 L123.3,308.2 L540.5,307.9 L542.3,307.2 L661.0,307.1 L661.0,306.9 L661.6,306.8 L662.8,77.4 L663.3,77.3 L664.0,77.2 L664.0,77.1 L664.1,77.0 L664.2,75.9 L667.5,75.8 L668.4,75.6 L668.6,75.5 L668.7,75.4 L671.1,75.3 L671.5,75.1 L671.8,75.0 L672.2,74.7 L678.2,74.6 L678.4,74.5 L679.1,65.5 L684.1,65.3 L684.3,65.2 L751.4,65.1 L760.0,65.0 L760.0,340.0Z" fill="url(#areaGrad)"/>
<path d="M80.0,315.0 L80.1,314.7 L80.6,314.4 L80.7,313.8 L81.1,313.6 L81.3,313.5 L82.2,313.2 L82.2,313.0 L83.9,312.7 L84.3,312.4 L109.0,312.3 L109.2,312.2 L109.4,312.1 L109.9,311.8 L110.6,311.6 L110.8,310.8 L111.0,310.7 L111.1,310.5 L115.6,310.3 L119.9,309.8 L120.0,309.7 L120.2,309.3 L122.1,308.5 L122.7,308.3 L123.3,308.2 L540.5,307.9 L542.3,307.2 L661.0,307.1 L661.0,306.9 L661.6,306.8 L662.8,77.4 L663.3,77.3 L664.0,77.2 L664.0,77.1 L664.1,77.0 L664.2,75.9 L667.5,75.8 L668.4,75.6 L668.6,75.5 L668.7,75.4 L671.1,75.3 L671.5,75.1 L671.8,75.0 L672.2,74.7 L678.2,74.6 L678.4,74.5 L679.1,65.5 L684.1,65.3 L684.3,65.2 L751.4,65.1 L760.0,65.0" fill="none" stroke="#4A90D9" stroke-width="2.5" stroke-linejoin="round" stroke-linecap="round"/>
<circle cx="80.0" cy="315.0" r="3.5" fill="white" stroke="#4A90D9" stroke-width="2"/>
<circle cx="80.1" cy="314.7" r="3.5" fill="white" stroke="#4A90D9" stroke-width="2"/>
<circle cx="80.6" cy="314.4" r="3.5" fill="white" stroke="#4A90D9" stroke-width="2"/>
<circle cx="80.7" cy="313.8" r="3.5" fill="white" stroke="#4A90D9" stroke-width="2"/>
<circle cx="81.1" cy="313.6" r="3.5" fill="white" stroke="#4A90D9" stroke-width="2"/>
<circle cx="81.3" cy="313.5" r="3.5" fill="white" stroke="#4A90D9" stroke-width="2"/>
<circle cx="82.2" cy="313.2" r="3.5" fill="white" stroke="#4A90D9" stroke-width="2"/>
<circle cx="82.2" cy="313.0" r="3.5" fill="white" stroke="#4A90D9" stroke-width="2"/>
<circle cx="83.9" cy="312.7" r="3.5" fill="white" stroke="#4A90D9" stroke-width="2"/>
<circle cx="84.3" cy="312.4" r="3.5" fill="white" stroke="#4A90D9" stroke-width="2"/>
<circle cx="109.0" cy="312.3" r="3.5" fill="white" stroke="#4A90D9" stroke-width="2"/>
<circle cx="109.2" cy="312.2" r="3.5" fill="white" stroke="#4A90D9" stroke-width="2"/>
<circle cx="109.4" cy="312.1" r="3.5" fill="white" stroke="#4A90D9" stroke-width="2"/>
<circle cx="109.9" cy="311.8" r="3.5" fill="white" stroke="#4A90D9" stroke-width="2"/>
<circle cx="110.6" cy="311.6" r="3.5" fill="white" stroke="#4A90D9" stroke-width="2"/>
<circle cx="110.8" cy="310.8" r="3.5" fill="white" stroke="#4A90D9" stroke-width="2"/>
<circle cx="111.0" cy="310.7" r="3.5" fill="white" stroke="#4A90D9" stroke-width="2"/>
<circle cx="111.1" cy="310.5" r="3.5" fill="white" stroke="#4A90D9" stroke-width="2"/>
<circle cx="115.6" cy="310.3" r="3.5" fill="white" stroke="#4A90D9" stroke-width="2"/>
<circle cx="119.9" cy="309.8" r="3.5" fill="white" stroke="#4A90D9" stroke-width="2"/>
<circle cx="120.0" cy="309.7" r="3.5" fill="white" stroke="#4A90D9" stroke-width="2"/>
<circle cx="120.2" cy="309.3" r="3.5" fill="white" stroke="#4A90D9" stroke-width="2"/>
<circle cx="122.1" cy="308.5" r="3.5" fill="white" stroke="#4A90D9" stroke-width="2"/>
<circle cx="122.7" cy="308.3" r="3.5" fill="white" stroke="#4A90D9" stroke-width="2"/>
<circle cx="123.3" cy="308.2" r="3.5" fill="white" stroke="#4A90D9" stroke-width="2"/>
<circle cx="540.5" cy="307.9" r="3.5" fill="white" stroke="#4A90D9" stroke-width="2"/>
<circle cx="542.3" cy="307.2" r="3.5" fill="white" stroke="#4A90D9" stroke-width="2"/>
<circle cx="661.0" cy="307.1" r="3.5" fill="white" stroke="#4A90D9" stroke-width="2"/>
<circle cx="661.0" cy="306.9" r="3.5" fill="white" stroke="#4A90D9" stroke-width="2"/>
<circle cx="661.6" cy="306.8" r="3.5" fill="white" stroke="#4A90D9" stroke-width="2"/>
<circle cx="662.8" cy="77.4" r="3.5" fill="white" stroke="#4A90D9" stroke-width="2"/>
<circle cx="663.3" cy="77.3" r="3.5" fill="white" stroke="#4A90D9" stroke-width="2"/>
<circle cx="664.0" cy="77.2" r="3.5" fill="white" stroke="#4A90D9" stroke-width="2"/>
<circle cx="664.0" cy="77.1" r="3.5" fill="white" stroke="#4A90D9" stroke-width="2"/>
<circle cx="664.1" cy="77.0" r="3.5" fill="white" stroke="#4A90D9" stroke-width="2"/>
<circle cx="664.2" cy="75.9" r="3.5" fill="white" stroke="#4A90D9" stroke-width="2"/>
<circle cx="667.5" cy="75.8" r="3.5" fill="white" stroke="#4A90D9" stroke-width="2"/>
<circle cx="668.4" cy="75.6" r="3.5" fill="white" stroke="#4A90D9" stroke-width="2"/>
<circle cx="668.6" cy="75.5" r="3.5" fill="white" stroke="#4A90D9" stroke-width="2"/>
<circle cx="668.7" cy="75.4" r="3.5" fill="white" stroke="#4A90D9" stroke-width="2"/>
<circle cx="671.1" cy="75.3" r="3.5" fill="white" stroke="#4A90D9" stroke-width="2"/>
<circle cx="671.5" cy="75.1" r="3.5" fill="white" stroke="#4A90D9" stroke-width="2"/>
<circle cx="671.8" cy="75.0" r="3.5" fill="white" stroke="#4A90D9" stroke-width="2"/>
<circle cx="672.2" cy="74.7" r="3.5" fill="white" stroke="#4A90D9" stroke-width="2"/>
<circle cx="678.2" cy="74.6" r="3.5" fill="white" stroke="#4A90D9" stroke-width="2"/>
<circle cx="678.4" cy="74.5" r="3.5" fill="white" stroke="#4A90D9" stroke-width="2"/>
<circle cx="679.1" cy="65.5" r="3.5" fill="white" stroke="#4A90D9" stroke-width="2"/>
<circle cx="684.1" cy="65.3" r="3.5" fill="white" stroke="#4A90D9" stroke-width="2"/>
<circle cx="684.3" cy="65.2" r="3.5" fill="white" stroke="#4A90D9" stroke-width="2"/>
<circle cx="751.4" cy="65.1" r="3.5" fill="white" stroke="#4A90D9" stroke-width="2"/>
<circle cx="760.0" cy="65.0" r="3.5" fill="white" stroke="#4A90D9" stroke-width="2"/>
<text x="80" y="24" font-family="system-ui, sans-serif" font-size="16" font-weight="600" fill="#333">Lines of Code</text>
<line x1="80" y1="40" x2="80" y2="340" stroke="#CCC" stroke-width="1"/><line x1="80" y1="340" x2="760" y2="340" stroke="#CCC" stroke-width="1"/>
</svg>