<svg xmlns="http://www.w3.org/2000/svg" viewBox="0 0 800 400" width="800" height="400">
<rect width="800" height="400" fill="white"/>
<defs><linearGradient id="areaGrad" x1="0" y1="0" x2="0" y2="1"><stop offset="0%" stop-color="#4A90D9" stop-opacity="0.3"/><stop offset="100%" stop-color="#4A90D9" stop-opacity="0.05"/></linearGradient></defs>
<line x1="80" y1="292.2" x2="760" y2="292.2" stroke="#E5E5E5" stroke-width="1"/>
<text x="72" y="296.2" text-anchor="end" font-family="system-ui, sans-serif" font-size="12" fill="#666">128k</text>
<line x1="80" y1="234.9" x2="760" y2="234.9" stroke="#E5E5E5" stroke-width="1"/>
<text x="72" y="238.9" text-anchor="end" font-family="system-ui, sans-serif" font-size="12" fill="#666">130k</text>
<line x1="80" y1="177.5" x2="760" y2="177.5" stroke="#E5E5E5" stroke-width="1"/>
<text x="72" y="181.5" text-anchor="end" font-family="system-ui, sans-serif" font-size="12" fill="#666">132k</text>
<line x1="80" y1="120.1" x2="760" y2="120.1" stroke="#E5E5E5" stroke-width="1"/>
<text x="72" y="124.1" text-anchor="end" font-family="system-ui, sans-serif" font-size="12" fill="#666">134k</text>
<line x1="80" y1="62.7" x2="760" y2="62.7" stroke="#E5E5E5" stroke-width="1"/>
<text x="72" y="66.7" text-anchor="end" font-family="system-ui, sans-serif" font-size="12" fill="#666">136k</text>
<text x="80.0" y="360" text-anchor="middle" font-family="system-ui, sans-serif" font-size="12" fill="#666">Jul 2026</text>
<text x="193.3" y="360" text-anchor="middle" font-family="system-ui, sans-serif" font-size="12" fill="#666">Jul 2026</text>
<text x="306.7" y="360" text-anchor="middle" font-family="system-ui, sans-serif" font-size="12" fill="#666">Jul 2026</text>
<text x="420.0" y="360" text-anchor="middle" font-family="system-ui, sans-serif" font-size="12" fill="#666">Jul 2026</text>
<text x="533.3" y="360" text-anchor="middle" font-family="system-ui, sans-serif" font-size="12" fill="#666">Jul 2026</text>
<text x="646.7" y="360" text-anchor="middle" font-family="system-ui, sans-serif" font-size="12" fill="#666">Jul 2026</text>
<text x="760.0" y="360" text-anchor="middle" font-family="system-ui, sans-serif" font-size="12" fill="#666">Jul 2026</text>
<path d="M80.0,340.0 L80.0,315.0 L81.9,300.5 L89.6,286.4 L91.8,256.0 L99.6,248.5 L102.2,240.7 L117.1,230.9 L118.2,217.0 L146.3,206.9 L152.9,190.7 L573.4,185.8 L578.3,180.1 L580.2,175.4 L588.6,163.3 L600.6,149.6 L603.9,115.3 L608.3,107.1 L609.9,101.0 L686.6,87.1 L760.0,65.0 L760.0,340.0Z" fill="url(#areaGrad)"/>
<path d="M80.0,315.0 L81.9,300.5 L89.6,286.4 L91.8,256.0 L99.6,248.5 L102.2,240.7 L117.1,230.9 L118.2,217.0 L146.3,206.9 L152.9,190.7 L573.4,185.8 L578.3,180.1 L580.2,175.4 L588.6,163.3 L600.6,149.6 L603.9,115.3 L608.3,107.1 L609.9,101.0 L686.6,87.1 L760.0,65.0" fill="none" stroke="#4A90D9" stroke-width="2.5" stroke-linejoin="round" stroke-linecap="round"/>
<circle cx="80.0" cy="315.0" r="3.5" fill="white" stroke="#4A90D9" stroke-width="2"/>
<circle cx="81.9" cy="300.5" r="3.5" fill="white" stroke="#4A90D9" stroke-width="2"/>
<circle cx="89.6" cy="286.4" r="3.5" fill="white" stroke="#4A90D9" stroke-width="2"/>
<circle cx="91.8" cy="256.0" r="3.5" fill="white" stroke="#4A90D9" stroke-width="2"/>
<circle cx="99.6" cy="248.5" r="3.5" fill="white" stroke="#4A90D9" stroke-width="2"/>
<circle cx="102.2" cy="240.7" r="3.5" fill="white" stroke="#4A90D9" stroke-width="2"/>
<circle cx="117.1" cy="230.9" r="3.5" fill="white" stroke="#4A90D9" stroke-width="2"/>
<circle cx="118.2" cy="217.0" r="3.5" fill="white" stroke="#4A90D9" stroke-width="2"/>
<circle cx="146.3" cy="206.9" r="3.5" fill="white" stroke="#4A90D9" stroke-width="2"/>
<circle cx="152.9" cy="190.7" r="3.5" fill="white" stroke="#4A90D9" stroke-width="2"/>
<circle cx="573.4" cy="185.8" r="3.5" fill="white" stroke="#4A90D9" stroke-width="2"/>
<circle cx="578.3" cy="180.1" r="3.5" fill="white" stroke="#4A90D9" stroke-width="2"/>
<circle cx="580.2" cy="175.4" r="3.5" fill="white" stroke="#4A90D9" stroke-width="2"/>
<circle cx="588.6" cy="163.3" r="3.5" fill="white" stroke="#4A90D9" stroke-width="2"/>
<circle cx="600.6" cy="149.6" r="3.5" fill="white" stroke="#4A90D9" stroke-width="2"/>
<circle cx="603.9" cy="115.3" r="3.5" fill="white" stroke="#4A90D9" stroke-width="2"/>
<circle cx="608.3" cy="107.1" r="3.5" fill="white" stroke="#4A90D9" stroke-width="2"/>
<circle cx="609.9" cy="101.0" r="3.5" fill="white" stroke="#4A90D9" stroke-width="2"/>
<circle cx="686.6" cy="87.1" r="3.5" fill="white" stroke="#4A90D9" stroke-width="2"/>
<circle cx="760.0" cy="65.0" r="3.5" fill="white" stroke="#4A90D9" stroke-width="2"/>
<text x="80" y="24" font-family="system-ui, sans-serif" font-size="16" font-weight="600" fill="#333">Lines of Code</text>
<line x1="80" y1="40" x2="80" y2="340" stroke="#CCC" stroke-width="1"/><line x1="80" y1="340" x2="760" y2="340" stroke="#CCC" stroke-width="1"/>
</svg>