<svg xmlns="http://www.w3.org/2000/svg" viewBox="0 0 800 400" width="800" height="400">
<rect width="800" height="400" fill="white"/>
<defs><linearGradient id="areaGrad" x1="0" y1="0" x2="0" y2="1"><stop offset="0%" stop-color="#4A90D9" stop-opacity="0.3"/><stop offset="100%" stop-color="#4A90D9" stop-opacity="0.05"/></linearGradient></defs>
<line x1="80" y1="326.4" x2="760" y2="326.4" stroke="#E5E5E5" stroke-width="1"/>
<text x="72" y="330.4" text-anchor="end" font-family="system-ui, sans-serif" font-size="12" fill="#666">127k</text>
<line x1="80" y1="270.9" x2="760" y2="270.9" stroke="#E5E5E5" stroke-width="1"/>
<text x="72" y="274.9" text-anchor="end" font-family="system-ui, sans-serif" font-size="12" fill="#666">128k</text>
<line x1="80" y1="215.4" x2="760" y2="215.4" stroke="#E5E5E5" stroke-width="1"/>
<text x="72" y="219.4" text-anchor="end" font-family="system-ui, sans-serif" font-size="12" fill="#666">129k</text>
<line x1="80" y1="160.0" x2="760" y2="160.0" stroke="#E5E5E5" stroke-width="1"/>
<text x="72" y="164.0" text-anchor="end" font-family="system-ui, sans-serif" font-size="12" fill="#666">130k</text>
<line x1="80" y1="104.5" x2="760" y2="104.5" stroke="#E5E5E5" stroke-width="1"/>
<text x="72" y="108.5" text-anchor="end" font-family="system-ui, sans-serif" font-size="12" fill="#666">131k</text>
<line x1="80" y1="49.0" x2="760" y2="49.0" stroke="#E5E5E5" stroke-width="1"/>
<text x="72" y="53.0" text-anchor="end" font-family="system-ui, sans-serif" font-size="12" fill="#666">132k</text>
<text x="80.0" y="360" text-anchor="middle" font-family="system-ui, sans-serif" font-size="12" fill="#666">Jul 2026</text>
<text x="193.3" y="360" text-anchor="middle" font-family="system-ui, sans-serif" font-size="12" fill="#666">Jul 2026</text>
<text x="306.7" y="360" text-anchor="middle" font-family="system-ui, sans-serif" font-size="12" fill="#666">Jul 2026</text>
<text x="420.0" y="360" text-anchor="middle" font-family="system-ui, sans-serif" font-size="12" fill="#666">Jul 2026</text>
<text x="533.3" y="360" text-anchor="middle" font-family="system-ui, sans-serif" font-size="12" fill="#666">Jul 2026</text>
<text x="646.7" y="360" text-anchor="middle" font-family="system-ui, sans-serif" font-size="12" fill="#666">Jul 2026</text>
<text x="760.0" y="360" text-anchor="middle" font-family="system-ui, sans-serif" font-size="12" fill="#666">Jul 2026</text>
<path d="M80.0,340.0 L80.0,315.0 L82.6,286.9 L93.2,259.7 L96.3,200.8 L107.0,186.4 L110.6,171.3 L131.1,152.3 L132.7,125.3 L171.3,105.8 L180.5,74.5 L760.0,65.0 L760.0,340.0Z" fill="url(#areaGrad)"/>
<path d="M80.0,315.0 L82.6,286.9 L93.2,259.7 L96.3,200.8 L107.0,186.4 L110.6,171.3 L131.1,152.3 L132.7,125.3 L171.3,105.8 L180.5,74.5 L760.0,65.0" fill="none" stroke="#4A90D9" stroke-width="2.5" stroke-linejoin="round" stroke-linecap="round"/>
<circle cx="80.0" cy="315.0" r="3.5" fill="white" stroke="#4A90D9" stroke-width="2"/>
<circle cx="82.6" cy="286.9" r="3.5" fill="white" stroke="#4A90D9" stroke-width="2"/>
<circle cx="93.2" cy="259.7" r="3.5" fill="white" stroke="#4A90D9" stroke-width="2"/>
<circle cx="96.3" cy="200.8" r="3.5" fill="white" stroke="#4A90D9" stroke-width="2"/>
<circle cx="107.0" cy="186.4" r="3.5" fill="white" stroke="#4A90D9" stroke-width="2"/>
<circle cx="110.6" cy="171.3" r="3.5" fill="white" stroke="#4A90D9" stroke-width="2"/>
<circle cx="131.1" cy="152.3" r="3.5" fill="white" stroke="#4A90D9" stroke-width="2"/>
<circle cx="132.7" cy="125.3" r="3.5" fill="white" stroke="#4A90D9" stroke-width="2"/>
<circle cx="171.3" cy="105.8" r="3.5" fill="white" stroke="#4A90D9" stroke-width="2"/>
<circle cx="180.5" cy="74.5" r="3.5" fill="white" stroke="#4A90D9" stroke-width="2"/>
<circle cx="760.0" cy="65.0" r="3.5" fill="white" stroke="#4A90D9" stroke-width="2"/>
<text x="80" y="24" font-family="system-ui, sans-serif" font-size="16" font-weight="600" fill="#333">Lines of Code</text>
<line x1="80" y1="40" x2="80" y2="340" stroke="#CCC" stroke-width="1"/><line x1="80" y1="340" x2="760" y2="340" stroke="#CCC" stroke-width="1"/>
</svg>