<svg xmlns="http://www.w3.org/2000/svg" viewBox="0 0 800 400" width="800" height="400">
<rect width="800" height="400" fill="white"/>
<defs><linearGradient id="areaGrad" x1="0" y1="0" x2="0" y2="1"><stop offset="0%" stop-color="#4A90D9" stop-opacity="0.3"/><stop offset="100%" stop-color="#4A90D9" stop-opacity="0.05"/></linearGradient></defs>
<line x1="80" y1="326.9" x2="760" y2="326.9" stroke="#E5E5E5" stroke-width="1"/>
<text x="72" y="330.9" text-anchor="end" font-family="system-ui, sans-serif" font-size="12" fill="#666">127k</text>
<line x1="80" y1="269.2" x2="760" y2="269.2" stroke="#E5E5E5" stroke-width="1"/>
<text x="72" y="273.2" text-anchor="end" font-family="system-ui, sans-serif" font-size="12" fill="#666">128k</text>
<line x1="80" y1="211.5" x2="760" y2="211.5" stroke="#E5E5E5" stroke-width="1"/>
<text x="72" y="215.5" text-anchor="end" font-family="system-ui, sans-serif" font-size="12" fill="#666">129k</text>
<line x1="80" y1="153.8" x2="760" y2="153.8" stroke="#E5E5E5" stroke-width="1"/>
<text x="72" y="157.8" text-anchor="end" font-family="system-ui, sans-serif" font-size="12" fill="#666">130k</text>
<line x1="80" y1="96.1" x2="760" y2="96.1" stroke="#E5E5E5" stroke-width="1"/>
<text x="72" y="100.1" text-anchor="end" font-family="system-ui, sans-serif" font-size="12" fill="#666">131k</text>
<text x="80.0" y="360" text-anchor="middle" font-family="system-ui, sans-serif" font-size="12" fill="#666">Jul 2026</text>
<text x="193.3" y="360" text-anchor="middle" font-family="system-ui, sans-serif" font-size="12" fill="#666">Jul 2026</text>
<text x="306.7" y="360" text-anchor="middle" font-family="system-ui, sans-serif" font-size="12" fill="#666">Jul 2026</text>
<text x="420.0" y="360" text-anchor="middle" font-family="system-ui, sans-serif" font-size="12" fill="#666">Jul 2026</text>
<text x="533.3" y="360" text-anchor="middle" font-family="system-ui, sans-serif" font-size="12" fill="#666">Jul 2026</text>
<text x="646.7" y="360" text-anchor="middle" font-family="system-ui, sans-serif" font-size="12" fill="#666">Jul 2026</text>
<text x="760.0" y="360" text-anchor="middle" font-family="system-ui, sans-serif" font-size="12" fill="#666">Jul 2026</text>
<path d="M80.0,340.0 L80.0,315.0 L97.6,285.8 L169.0,257.5 L190.3,196.3 L262.4,181.3 L286.8,165.7 L426.0,145.9 L436.4,117.8 L697.8,97.6 L760.0,65.0 L760.0,340.0Z" fill="url(#areaGrad)"/>
<path d="M80.0,315.0 L97.6,285.8 L169.0,257.5 L190.3,196.3 L262.4,181.3 L286.8,165.7 L426.0,145.9 L436.4,117.8 L697.8,97.6 L760.0,65.0" fill="none" stroke="#4A90D9" stroke-width="2.5" stroke-linejoin="round" stroke-linecap="round"/>
<circle cx="80.0" cy="315.0" r="3.5" fill="white" stroke="#4A90D9" stroke-width="2"/>
<circle cx="97.6" cy="285.8" r="3.5" fill="white" stroke="#4A90D9" stroke-width="2"/>
<circle cx="169.0" cy="257.5" r="3.5" fill="white" stroke="#4A90D9" stroke-width="2"/>
<circle cx="190.3" cy="196.3" r="3.5" fill="white" stroke="#4A90D9" stroke-width="2"/>
<circle cx="262.4" cy="181.3" r="3.5" fill="white" stroke="#4A90D9" stroke-width="2"/>
<circle cx="286.8" cy="165.7" r="3.5" fill="white" stroke="#4A90D9" stroke-width="2"/>
<circle cx="426.0" cy="145.9" r="3.5" fill="white" stroke="#4A90D9" stroke-width="2"/>
<circle cx="436.4" cy="117.8" r="3.5" fill="white" stroke="#4A90D9" stroke-width="2"/>
<circle cx="697.8" cy="97.6" r="3.5" fill="white" stroke="#4A90D9" stroke-width="2"/>
<circle cx="760.0" cy="65.0" r="3.5" fill="white" stroke="#4A90D9" stroke-width="2"/>
<text x="80" y="24" font-family="system-ui, sans-serif" font-size="16" font-weight="600" fill="#333">Lines of Code</text>
<line x1="80" y1="40" x2="80" y2="340" stroke="#CCC" stroke-width="1"/><line x1="80" y1="340" x2="760" y2="340" stroke="#CCC" stroke-width="1"/>
</svg>