<svg xmlns="http://www.w3.org/2000/svg" viewBox="0 0 800 400" width="800" height="400">
<rect width="800" height="400" fill="white"/>
<defs><linearGradient id="areaGrad" x1="0" y1="0" x2="0" y2="1"><stop offset="0%" stop-color="#4A90D9" stop-opacity="0.3"/><stop offset="100%" stop-color="#4A90D9" stop-opacity="0.05"/></linearGradient></defs>
<line x1="80" y1="332.1" x2="760" y2="332.1" stroke="#E5E5E5" stroke-width="1"/>
<text x="72" y="336.1" text-anchor="end" font-family="system-ui, sans-serif" font-size="12" fill="#666">100k</text>
<line x1="80" y1="269.2" x2="760" y2="269.2" stroke="#E5E5E5" stroke-width="1"/>
<text x="72" y="273.2" text-anchor="end" font-family="system-ui, sans-serif" font-size="12" fill="#666">200k</text>
<line x1="80" y1="206.4" x2="760" y2="206.4" stroke="#E5E5E5" stroke-width="1"/>
<text x="72" y="210.4" text-anchor="end" font-family="system-ui, sans-serif" font-size="12" fill="#666">300k</text>
<line x1="80" y1="143.5" x2="760" y2="143.5" stroke="#E5E5E5" stroke-width="1"/>
<text x="72" y="147.5" text-anchor="end" font-family="system-ui, sans-serif" font-size="12" fill="#666">400k</text>
<line x1="80" y1="80.7" x2="760" y2="80.7" stroke="#E5E5E5" stroke-width="1"/>
<text x="72" y="84.7" text-anchor="end" font-family="system-ui, sans-serif" font-size="12" fill="#666">500k</text>
<text x="80.0" y="360" text-anchor="middle" font-family="system-ui, sans-serif" font-size="12" fill="#666">Jul 2026</text>
<text x="193.3" y="360" text-anchor="middle" font-family="system-ui, sans-serif" font-size="12" fill="#666">Jul 2026</text>
<text x="306.7" y="360" text-anchor="middle" font-family="system-ui, sans-serif" font-size="12" fill="#666">Jul 2026</text>
<text x="420.0" y="360" text-anchor="middle" font-family="system-ui, sans-serif" font-size="12" fill="#666">Jul 2026</text>
<text x="533.3" y="360" text-anchor="middle" font-family="system-ui, sans-serif" font-size="12" fill="#666">Jul 2026</text>
<text x="646.7" y="360" text-anchor="middle" font-family="system-ui, sans-serif" font-size="12" fill="#666">Jul 2026</text>
<text x="760.0" y="360" text-anchor="middle" font-family="system-ui, sans-serif" font-size="12" fill="#666">Jul 2026</text>
<path d="M80.0,340.0 L80.0,315.0 L80.1,314.7 L80.7,314.4 L80.8,313.7 L81.3,313.5 L81.5,313.4 L82.5,313.2 L82.6,312.9 L84.5,312.6 L85.0,312.3 L113.8,312.2 L114.1,312.0 L114.2,311.9 L114.8,311.7 L115.6,311.4 L115.8,310.6 L116.1,310.4 L116.3,310.3 L121.5,310.0 L126.5,309.5 L126.6,309.4 L126.9,309.0 L129.1,308.2 L129.8,307.9 L130.5,307.8 L616.8,307.6 L619.0,306.8 L757.3,306.7 L757.4,306.5 L758.0,306.4 L759.4,65.1 L760.0,65.0 L760.0,340.0Z" fill="url(#areaGrad)"/>
<path d="M80.0,315.0 L80.1,314.7 L80.7,314.4 L80.8,313.7 L81.3,313.5 L81.5,313.4 L82.5,313.2 L82.6,312.9 L84.5,312.6 L85.0,312.3 L113.8,312.2 L114.1,312.0 L114.2,311.9 L114.8,311.7 L115.6,311.4 L115.8,310.6 L116.1,310.4 L116.3,310.3 L121.5,310.0 L126.5,309.5 L126.6,309.4 L126.9,309.0 L129.1,308.2 L129.8,307.9 L130.5,307.8 L616.8,307.6 L619.0,306.8 L757.3,306.7 L757.4,306.5 L758.0,306.4 L759.4,65.1 L760.0,65.0" fill="none" stroke="#4A90D9" stroke-width="2.5" stroke-linejoin="round" stroke-linecap="round"/>
<circle cx="80.0" cy="315.0" r="3.5" fill="white" stroke="#4A90D9" stroke-width="2"/>
<circle cx="80.1" cy="314.7" r="3.5" fill="white" stroke="#4A90D9" stroke-width="2"/>
<circle cx="80.7" cy="314.4" r="3.5" fill="white" stroke="#4A90D9" stroke-width="2"/>
<circle cx="80.8" cy="313.7" r="3.5" fill="white" stroke="#4A90D9" stroke-width="2"/>
<circle cx="81.3" cy="313.5" r="3.5" fill="white" stroke="#4A90D9" stroke-width="2"/>
<circle cx="81.5" cy="313.4" r="3.5" fill="white" stroke="#4A90D9" stroke-width="2"/>
<circle cx="82.5" cy="313.2" r="3.5" fill="white" stroke="#4A90D9" stroke-width="2"/>
<circle cx="82.6" cy="312.9" r="3.5" fill="white" stroke="#4A90D9" stroke-width="2"/>
<circle cx="84.5" cy="312.6" r="3.5" fill="white" stroke="#4A90D9" stroke-width="2"/>
<circle cx="85.0" cy="312.3" r="3.5" fill="white" stroke="#4A90D9" stroke-width="2"/>
<circle cx="113.8" cy="312.2" r="3.5" fill="white" stroke="#4A90D9" stroke-width="2"/>
<circle cx="114.1" cy="312.0" r="3.5" fill="white" stroke="#4A90D9" stroke-width="2"/>
<circle cx="114.2" cy="311.9" r="3.5" fill="white" stroke="#4A90D9" stroke-width="2"/>
<circle cx="114.8" cy="311.7" r="3.5" fill="white" stroke="#4A90D9" stroke-width="2"/>
<circle cx="115.6" cy="311.4" r="3.5" fill="white" stroke="#4A90D9" stroke-width="2"/>
<circle cx="115.8" cy="310.6" r="3.5" fill="white" stroke="#4A90D9" stroke-width="2"/>
<circle cx="116.1" cy="310.4" r="3.5" fill="white" stroke="#4A90D9" stroke-width="2"/>
<circle cx="116.3" cy="310.3" r="3.5" fill="white" stroke="#4A90D9" stroke-width="2"/>
<circle cx="121.5" cy="310.0" r="3.5" fill="white" stroke="#4A90D9" stroke-width="2"/>
<circle cx="126.5" cy="309.5" r="3.5" fill="white" stroke="#4A90D9" stroke-width="2"/>
<circle cx="126.6" cy="309.4" r="3.5" fill="white" stroke="#4A90D9" stroke-width="2"/>
<circle cx="126.9" cy="309.0" r="3.5" fill="white" stroke="#4A90D9" stroke-width="2"/>
<circle cx="129.1" cy="308.2" r="3.5" fill="white" stroke="#4A90D9" stroke-width="2"/>
<circle cx="129.8" cy="307.9" r="3.5" fill="white" stroke="#4A90D9" stroke-width="2"/>
<circle cx="130.5" cy="307.8" r="3.5" fill="white" stroke="#4A90D9" stroke-width="2"/>
<circle cx="616.8" cy="307.6" r="3.5" fill="white" stroke="#4A90D9" stroke-width="2"/>
<circle cx="619.0" cy="306.8" r="3.5" fill="white" stroke="#4A90D9" stroke-width="2"/>
<circle cx="757.3" cy="306.7" r="3.5" fill="white" stroke="#4A90D9" stroke-width="2"/>
<circle cx="757.4" cy="306.5" r="3.5" fill="white" stroke="#4A90D9" stroke-width="2"/>
<circle cx="758.0" cy="306.4" r="3.5" fill="white" stroke="#4A90D9" stroke-width="2"/>
<circle cx="759.4" cy="65.1" r="3.5" fill="white" stroke="#4A90D9" stroke-width="2"/>
<circle cx="760.0" cy="65.0" r="3.5" fill="white" stroke="#4A90D9" stroke-width="2"/>
<text x="80" y="24" font-family="system-ui, sans-serif" font-size="16" font-weight="600" fill="#333">Lines of Code</text>
<line x1="80" y1="40" x2="80" y2="340" stroke="#CCC" stroke-width="1"/><line x1="80" y1="340" x2="760" y2="340" stroke="#CCC" stroke-width="1"/>
</svg>