<svg xmlns="http://www.w3.org/2000/svg" viewBox="0 0 800 400" width="800" height="400">
<rect width="800" height="400" fill="white"/>
<defs><linearGradient id="areaGrad" x1="0" y1="0" x2="0" y2="1"><stop offset="0%" stop-color="#4A90D9" stop-opacity="0.3"/><stop offset="100%" stop-color="#4A90D9" stop-opacity="0.05"/></linearGradient></defs>
<line x1="80" y1="324.7" x2="760" y2="324.7" stroke="#E5E5E5" stroke-width="1"/>
<text x="72" y="328.7" text-anchor="end" font-family="system-ui, sans-serif" font-size="12" fill="#666">127k</text>
<line x1="80" y1="277.5" x2="760" y2="277.5" stroke="#E5E5E5" stroke-width="1"/>
<text x="72" y="281.5" text-anchor="end" font-family="system-ui, sans-serif" font-size="12" fill="#666">128k</text>
<line x1="80" y1="230.2" x2="760" y2="230.2" stroke="#E5E5E5" stroke-width="1"/>
<text x="72" y="234.2" text-anchor="end" font-family="system-ui, sans-serif" font-size="12" fill="#666">129k</text>
<line x1="80" y1="182.9" x2="760" y2="182.9" stroke="#E5E5E5" stroke-width="1"/>
<text x="72" y="186.9" text-anchor="end" font-family="system-ui, sans-serif" font-size="12" fill="#666">130k</text>
<line x1="80" y1="135.6" x2="760" y2="135.6" stroke="#E5E5E5" stroke-width="1"/>
<text x="72" y="139.6" text-anchor="end" font-family="system-ui, sans-serif" font-size="12" fill="#666">131k</text>
<line x1="80" y1="88.4" x2="760" y2="88.4" stroke="#E5E5E5" stroke-width="1"/>
<text x="72" y="92.4" text-anchor="end" font-family="system-ui, sans-serif" font-size="12" fill="#666">132k</text>
<line x1="80" y1="41.1" x2="760" y2="41.1" stroke="#E5E5E5" stroke-width="1"/>
<text x="72" y="45.1" text-anchor="end" font-family="system-ui, sans-serif" font-size="12" fill="#666">133k</text>
<text x="80.0" y="360" text-anchor="middle" font-family="system-ui, sans-serif" font-size="12" fill="#666">Jul 2026</text>
<text x="193.3" y="360" text-anchor="middle" font-family="system-ui, sans-serif" font-size="12" fill="#666">Jul 2026</text>
<text x="306.7" y="360" text-anchor="middle" font-family="system-ui, sans-serif" font-size="12" fill="#666">Jul 2026</text>
<text x="420.0" y="360" text-anchor="middle" font-family="system-ui, sans-serif" font-size="12" fill="#666">Jul 2026</text>
<text x="533.3" y="360" text-anchor="middle" font-family="system-ui, sans-serif" font-size="12" fill="#666">Jul 2026</text>
<text x="646.7" y="360" text-anchor="middle" font-family="system-ui, sans-serif" font-size="12" fill="#666">Jul 2026</text>
<text x="760.0" y="360" text-anchor="middle" font-family="system-ui, sans-serif" font-size="12" fill="#666">Jul 2026</text>
<path d="M80.0,340.0 L80.0,315.0 L82.5,291.0 L92.8,267.9 L95.8,217.7 L106.2,205.5 L109.7,192.6 L129.6,176.4 L131.1,153.4 L168.6,136.8 L177.5,110.1 L739.8,102.0 L746.3,92.8 L748.8,85.0 L760.0,65.0 L760.0,340.0Z" fill="url(#areaGrad)"/>
<path d="M80.0,315.0 L82.5,291.0 L92.8,267.9 L95.8,217.7 L106.2,205.5 L109.7,192.6 L129.6,176.4 L131.1,153.4 L168.6,136.8 L177.5,110.1 L739.8,102.0 L746.3,92.8 L748.8,85.0 L760.0,65.0" fill="none" stroke="#4A90D9" stroke-width="2.5" stroke-linejoin="round" stroke-linecap="round"/>
<circle cx="80.0" cy="315.0" r="3.5" fill="white" stroke="#4A90D9" stroke-width="2"/>
<circle cx="82.5" cy="291.0" r="3.5" fill="white" stroke="#4A90D9" stroke-width="2"/>
<circle cx="92.8" cy="267.9" r="3.5" fill="white" stroke="#4A90D9" stroke-width="2"/>
<circle cx="95.8" cy="217.7" r="3.5" fill="white" stroke="#4A90D9" stroke-width="2"/>
<circle cx="106.2" cy="205.5" r="3.5" fill="white" stroke="#4A90D9" stroke-width="2"/>
<circle cx="109.7" cy="192.6" r="3.5" fill="white" stroke="#4A90D9" stroke-width="2"/>
<circle cx="129.6" cy="176.4" r="3.5" fill="white" stroke="#4A90D9" stroke-width="2"/>
<circle cx="131.1" cy="153.4" r="3.5" fill="white" stroke="#4A90D9" stroke-width="2"/>
<circle cx="168.6" cy="136.8" r="3.5" fill="white" stroke="#4A90D9" stroke-width="2"/>
<circle cx="177.5" cy="110.1" r="3.5" fill="white" stroke="#4A90D9" stroke-width="2"/>
<circle cx="739.8" cy="102.0" r="3.5" fill="white" stroke="#4A90D9" stroke-width="2"/>
<circle cx="746.3" cy="92.8" r="3.5" fill="white" stroke="#4A90D9" stroke-width="2"/>
<circle cx="748.8" cy="85.0" r="3.5" fill="white" stroke="#4A90D9" stroke-width="2"/>
<circle cx="760.0" cy="65.0" r="3.5" fill="white" stroke="#4A90D9" stroke-width="2"/>
<text x="80" y="24" font-family="system-ui, sans-serif" font-size="16" font-weight="600" fill="#333">Lines of Code</text>
<line x1="80" y1="40" x2="80" y2="340" stroke="#CCC" stroke-width="1"/><line x1="80" y1="340" x2="760" y2="340" stroke="#CCC" stroke-width="1"/>
</svg>