<svg xmlns="http://www.w3.org/2000/svg" viewBox="0 0 800 400" width="800" height="400">
<rect width="800" height="400" fill="white"/>
<defs><linearGradient id="areaGrad" x1="0" y1="0" x2="0" y2="1"><stop offset="0%" stop-color="#4A90D9" stop-opacity="0.3"/><stop offset="100%" stop-color="#4A90D9" stop-opacity="0.05"/></linearGradient></defs>
<line x1="80" y1="292.8" x2="760" y2="292.8" stroke="#E5E5E5" stroke-width="1"/>
<text x="72" y="296.8" text-anchor="end" font-family="system-ui, sans-serif" font-size="12" fill="#666">128k</text>
<line x1="80" y1="236.9" x2="760" y2="236.9" stroke="#E5E5E5" stroke-width="1"/>
<text x="72" y="240.9" text-anchor="end" font-family="system-ui, sans-serif" font-size="12" fill="#666">130k</text>
<line x1="80" y1="180.9" x2="760" y2="180.9" stroke="#E5E5E5" stroke-width="1"/>
<text x="72" y="184.9" text-anchor="end" font-family="system-ui, sans-serif" font-size="12" fill="#666">132k</text>
<line x1="80" y1="125.0" x2="760" y2="125.0" stroke="#E5E5E5" stroke-width="1"/>
<text x="72" y="129.0" text-anchor="end" font-family="system-ui, sans-serif" font-size="12" fill="#666">134k</text>
<line x1="80" y1="69.1" x2="760" y2="69.1" stroke="#E5E5E5" stroke-width="1"/>
<text x="72" y="73.1" text-anchor="end" font-family="system-ui, sans-serif" font-size="12" fill="#666">136k</text>
<text x="80.0" y="360" text-anchor="middle" font-family="system-ui, sans-serif" font-size="12" fill="#666">Jul 2026</text>
<text x="193.3" y="360" text-anchor="middle" font-family="system-ui, sans-serif" font-size="12" fill="#666">Jul 2026</text>
<text x="306.7" y="360" text-anchor="middle" font-family="system-ui, sans-serif" font-size="12" fill="#666">Jul 2026</text>
<text x="420.0" y="360" text-anchor="middle" font-family="system-ui, sans-serif" font-size="12" fill="#666">Jul 2026</text>
<text x="533.3" y="360" text-anchor="middle" font-family="system-ui, sans-serif" font-size="12" fill="#666">Jul 2026</text>
<text x="646.7" y="360" text-anchor="middle" font-family="system-ui, sans-serif" font-size="12" fill="#666">Jul 2026</text>
<text x="760.0" y="360" text-anchor="middle" font-family="system-ui, sans-serif" font-size="12" fill="#666">Jul 2026</text>
<path d="M80.0,340.0 L80.0,315.0 L81.9,300.8 L89.5,287.1 L91.8,257.4 L99.5,250.2 L102.1,242.6 L117.1,233.0 L118.2,219.4 L146.2,209.6 L152.8,193.8 L572.7,189.0 L577.5,183.5 L579.4,178.9 L587.8,167.1 L599.8,153.8 L603.1,120.4 L607.5,112.3 L609.1,106.4 L685.6,92.8 L759.0,71.3 L760.0,65.0 L760.0,340.0Z" fill="url(#areaGrad)"/>
<path d="M80.0,315.0 L81.9,300.8 L89.5,287.1 L91.8,257.4 L99.5,250.2 L102.1,242.6 L117.1,233.0 L118.2,219.4 L146.2,209.6 L152.8,193.8 L572.7,189.0 L577.5,183.5 L579.4,178.9 L587.8,167.1 L599.8,153.8 L603.1,120.4 L607.5,112.3 L609.1,106.4 L685.6,92.8 L759.0,71.3 L760.0,65.0" fill="none" stroke="#4A90D9" stroke-width="2.5" stroke-linejoin="round" stroke-linecap="round"/>
<circle cx="80.0" cy="315.0" r="3.5" fill="white" stroke="#4A90D9" stroke-width="2"/>
<circle cx="81.9" cy="300.8" r="3.5" fill="white" stroke="#4A90D9" stroke-width="2"/>
<circle cx="89.5" cy="287.1" r="3.5" fill="white" stroke="#4A90D9" stroke-width="2"/>
<circle cx="91.8" cy="257.4" r="3.5" fill="white" stroke="#4A90D9" stroke-width="2"/>
<circle cx="99.5" cy="250.2" r="3.5" fill="white" stroke="#4A90D9" stroke-width="2"/>
<circle cx="102.1" cy="242.6" r="3.5" fill="white" stroke="#4A90D9" stroke-width="2"/>
<circle cx="117.1" cy="233.0" r="3.5" fill="white" stroke="#4A90D9" stroke-width="2"/>
<circle cx="118.2" cy="219.4" r="3.5" fill="white" stroke="#4A90D9" stroke-width="2"/>
<circle cx="146.2" cy="209.6" r="3.5" fill="white" stroke="#4A90D9" stroke-width="2"/>
<circle cx="152.8" cy="193.8" r="3.5" fill="white" stroke="#4A90D9" stroke-width="2"/>
<circle cx="572.7" cy="189.0" r="3.5" fill="white" stroke="#4A90D9" stroke-width="2"/>
<circle cx="577.5" cy="183.5" r="3.5" fill="white" stroke="#4A90D9" stroke-width="2"/>
<circle cx="579.4" cy="178.9" r="3.5" fill="white" stroke="#4A90D9" stroke-width="2"/>
<circle cx="587.8" cy="167.1" r="3.5" fill="white" stroke="#4A90D9" stroke-width="2"/>
<circle cx="599.8" cy="153.8" r="3.5" fill="white" stroke="#4A90D9" stroke-width="2"/>
<circle cx="603.1" cy="120.4" r="3.5" fill="white" stroke="#4A90D9" stroke-width="2"/>
<circle cx="607.5" cy="112.3" r="3.5" fill="white" stroke="#4A90D9" stroke-width="2"/>
<circle cx="609.1" cy="106.4" r="3.5" fill="white" stroke="#4A90D9" stroke-width="2"/>
<circle cx="685.6" cy="92.8" r="3.5" fill="white" stroke="#4A90D9" stroke-width="2"/>
<circle cx="759.0" cy="71.3" r="3.5" fill="white" stroke="#4A90D9" stroke-width="2"/>
<circle cx="760.0" cy="65.0" r="3.5" fill="white" stroke="#4A90D9" stroke-width="2"/>
<text x="80" y="24" font-family="system-ui, sans-serif" font-size="16" font-weight="600" fill="#333">Lines of Code</text>
<line x1="80" y1="40" x2="80" y2="340" stroke="#CCC" stroke-width="1"/><line x1="80" y1="340" x2="760" y2="340" stroke="#CCC" stroke-width="1"/>
</svg>