<svg xmlns="http://www.w3.org/2000/svg" viewBox="0 0 800 400" width="800" height="400">
<rect width="800" height="400" fill="white"/>
<defs><linearGradient id="areaGrad" x1="0" y1="0" x2="0" y2="1"><stop offset="0%" stop-color="#4A90D9" stop-opacity="0.3"/><stop offset="100%" stop-color="#4A90D9" stop-opacity="0.05"/></linearGradient></defs>
<line x1="80" y1="294.3" x2="760" y2="294.3" stroke="#E5E5E5" stroke-width="1"/>
<text x="72" y="298.3" text-anchor="end" font-family="system-ui, sans-serif" font-size="12" fill="#666">128k</text>
<line x1="80" y1="242.1" x2="760" y2="242.1" stroke="#E5E5E5" stroke-width="1"/>
<text x="72" y="246.1" text-anchor="end" font-family="system-ui, sans-serif" font-size="12" fill="#666">130k</text>
<line x1="80" y1="190.0" x2="760" y2="190.0" stroke="#E5E5E5" stroke-width="1"/>
<text x="72" y="194.0" text-anchor="end" font-family="system-ui, sans-serif" font-size="12" fill="#666">132k</text>
<line x1="80" y1="137.9" x2="760" y2="137.9" stroke="#E5E5E5" stroke-width="1"/>
<text x="72" y="141.9" text-anchor="end" font-family="system-ui, sans-serif" font-size="12" fill="#666">134k</text>
<line x1="80" y1="85.7" x2="760" y2="85.7" stroke="#E5E5E5" stroke-width="1"/>
<text x="72" y="89.7" text-anchor="end" font-family="system-ui, sans-serif" font-size="12" fill="#666">136k</text>
<text x="80.0" y="360" text-anchor="middle" font-family="system-ui, sans-serif" font-size="12" fill="#666">Jul 2026</text>
<text x="193.3" y="360" text-anchor="middle" font-family="system-ui, sans-serif" font-size="12" fill="#666">Jul 2026</text>
<text x="306.7" y="360" text-anchor="middle" font-family="system-ui, sans-serif" font-size="12" fill="#666">Jul 2026</text>
<text x="420.0" y="360" text-anchor="middle" font-family="system-ui, sans-serif" font-size="12" fill="#666">Jul 2026</text>
<text x="533.3" y="360" text-anchor="middle" font-family="system-ui, sans-serif" font-size="12" fill="#666">Jul 2026</text>
<text x="646.7" y="360" text-anchor="middle" font-family="system-ui, sans-serif" font-size="12" fill="#666">Jul 2026</text>
<text x="760.0" y="360" text-anchor="middle" font-family="system-ui, sans-serif" font-size="12" fill="#666">Jul 2026</text>
<path d="M80.0,340.0 L80.0,315.0 L81.9,301.8 L89.5,289.0 L91.7,261.3 L99.4,254.6 L102.0,247.5 L116.8,238.6 L117.9,225.9 L145.8,216.7 L152.4,202.0 L569.7,197.5 L574.5,192.4 L576.4,188.1 L584.7,177.1 L596.6,164.7 L599.9,133.5 L604.2,126.0 L605.9,120.5 L681.9,107.8 L754.8,87.8 L755.8,81.9 L760.0,65.0 L760.0,340.0Z" fill="url(#areaGrad)"/>
<path d="M80.0,315.0 L81.9,301.8 L89.5,289.0 L91.7,261.3 L99.4,254.6 L102.0,247.5 L116.8,238.6 L117.9,225.9 L145.8,216.7 L152.4,202.0 L569.7,197.5 L574.5,192.4 L576.4,188.1 L584.7,177.1 L596.6,164.7 L599.9,133.5 L604.2,126.0 L605.9,120.5 L681.9,107.8 L754.8,87.8 L755.8,81.9 L760.0,65.0" fill="none" stroke="#4A90D9" stroke-width="2.5" stroke-linejoin="round" stroke-linecap="round"/>
<circle cx="80.0" cy="315.0" r="3.5" fill="white" stroke="#4A90D9" stroke-width="2"/>
<circle cx="81.9" cy="301.8" r="3.5" fill="white" stroke="#4A90D9" stroke-width="2"/>
<circle cx="89.5" cy="289.0" r="3.5" fill="white" stroke="#4A90D9" stroke-width="2"/>
<circle cx="91.7" cy="261.3" r="3.5" fill="white" stroke="#4A90D9" stroke-width="2"/>
<circle cx="99.4" cy="254.6" r="3.5" fill="white" stroke="#4A90D9" stroke-width="2"/>
<circle cx="102.0" cy="247.5" r="3.5" fill="white" stroke="#4A90D9" stroke-width="2"/>
<circle cx="116.8" cy="238.6" r="3.5" fill="white" stroke="#4A90D9" stroke-width="2"/>
<circle cx="117.9" cy="225.9" r="3.5" fill="white" stroke="#4A90D9" stroke-width="2"/>
<circle cx="145.8" cy="216.7" r="3.5" fill="white" stroke="#4A90D9" stroke-width="2"/>
<circle cx="152.4" cy="202.0" r="3.5" fill="white" stroke="#4A90D9" stroke-width="2"/>
<circle cx="569.7" cy="197.5" r="3.5" fill="white" stroke="#4A90D9" stroke-width="2"/>
<circle cx="574.5" cy="192.4" r="3.5" fill="white" stroke="#4A90D9" stroke-width="2"/>
<circle cx="576.4" cy="188.1" r="3.5" fill="white" stroke="#4A90D9" stroke-width="2"/>
<circle cx="584.7" cy="177.1" r="3.5" fill="white" stroke="#4A90D9" stroke-width="2"/>
<circle cx="596.6" cy="164.7" r="3.5" fill="white" stroke="#4A90D9" stroke-width="2"/>
<circle cx="599.9" cy="133.5" r="3.5" fill="white" stroke="#4A90D9" stroke-width="2"/>
<circle cx="604.2" cy="126.0" r="3.5" fill="white" stroke="#4A90D9" stroke-width="2"/>
<circle cx="605.9" cy="120.5" r="3.5" fill="white" stroke="#4A90D9" stroke-width="2"/>
<circle cx="681.9" cy="107.8" r="3.5" fill="white" stroke="#4A90D9" stroke-width="2"/>
<circle cx="754.8" cy="87.8" r="3.5" fill="white" stroke="#4A90D9" stroke-width="2"/>
<circle cx="755.8" cy="81.9" r="3.5" fill="white" stroke="#4A90D9" stroke-width="2"/>
<circle cx="760.0" cy="65.0" r="3.5" fill="white" stroke="#4A90D9" stroke-width="2"/>
<text x="80" y="24" font-family="system-ui, sans-serif" font-size="16" font-weight="600" fill="#333">Lines of Code</text>
<line x1="80" y1="40" x2="80" y2="340" stroke="#CCC" stroke-width="1"/><line x1="80" y1="340" x2="760" y2="340" stroke="#CCC" stroke-width="1"/>
</svg>