<svg xmlns="http://www.w3.org/2000/svg" viewBox="0 0 800 400" width="800" height="400">
<rect width="800" height="400" fill="white"/>
<defs><linearGradient id="areaGrad" x1="0" y1="0" x2="0" y2="1"><stop offset="0%" stop-color="#4A90D9" stop-opacity="0.3"/><stop offset="100%" stop-color="#4A90D9" stop-opacity="0.05"/></linearGradient></defs>
<line x1="80" y1="326.0" x2="760" y2="326.0" stroke="#E5E5E5" stroke-width="1"/>
<text x="72" y="330.0" text-anchor="end" font-family="system-ui, sans-serif" font-size="12" fill="#666">127k</text>
<line x1="80" y1="272.8" x2="760" y2="272.8" stroke="#E5E5E5" stroke-width="1"/>
<text x="72" y="276.8" text-anchor="end" font-family="system-ui, sans-serif" font-size="12" fill="#666">128k</text>
<line x1="80" y1="219.6" x2="760" y2="219.6" stroke="#E5E5E5" stroke-width="1"/>
<text x="72" y="223.6" text-anchor="end" font-family="system-ui, sans-serif" font-size="12" fill="#666">129k</text>
<line x1="80" y1="166.4" x2="760" y2="166.4" stroke="#E5E5E5" stroke-width="1"/>
<text x="72" y="170.4" text-anchor="end" font-family="system-ui, sans-serif" font-size="12" fill="#666">130k</text>
<line x1="80" y1="113.2" x2="760" y2="113.2" stroke="#E5E5E5" stroke-width="1"/>
<text x="72" y="117.2" text-anchor="end" font-family="system-ui, sans-serif" font-size="12" fill="#666">131k</text>
<line x1="80" y1="60.1" x2="760" y2="60.1" stroke="#E5E5E5" stroke-width="1"/>
<text x="72" y="64.1" text-anchor="end" font-family="system-ui, sans-serif" font-size="12" fill="#666">132k</text>
<text x="80.0" y="360" text-anchor="middle" font-family="system-ui, sans-serif" font-size="12" fill="#666">Jul 2026</text>
<text x="193.3" y="360" text-anchor="middle" font-family="system-ui, sans-serif" font-size="12" fill="#666">Jul 2026</text>
<text x="306.7" y="360" text-anchor="middle" font-family="system-ui, sans-serif" font-size="12" fill="#666">Jul 2026</text>
<text x="420.0" y="360" text-anchor="middle" font-family="system-ui, sans-serif" font-size="12" fill="#666">Jul 2026</text>
<text x="533.3" y="360" text-anchor="middle" font-family="system-ui, sans-serif" font-size="12" fill="#666">Jul 2026</text>
<text x="646.7" y="360" text-anchor="middle" font-family="system-ui, sans-serif" font-size="12" fill="#666">Jul 2026</text>
<text x="760.0" y="360" text-anchor="middle" font-family="system-ui, sans-serif" font-size="12" fill="#666">Jul 2026</text>
<path d="M80.0,340.0 L80.0,315.0 L82.6,288.0 L93.0,262.0 L96.1,205.6 L106.7,191.8 L110.3,177.3 L130.6,159.1 L132.2,133.2 L170.4,114.6 L179.5,84.5 L753.4,75.4 L760.0,65.0 L760.0,340.0Z" fill="url(#areaGrad)"/>
<path d="M80.0,315.0 L82.6,288.0 L93.0,262.0 L96.1,205.6 L106.7,191.8 L110.3,177.3 L130.6,159.1 L132.2,133.2 L170.4,114.6 L179.5,84.5 L753.4,75.4 L760.0,65.0" fill="none" stroke="#4A90D9" stroke-width="2.5" stroke-linejoin="round" stroke-linecap="round"/>
<circle cx="80.0" cy="315.0" r="3.5" fill="white" stroke="#4A90D9" stroke-width="2"/>
<circle cx="82.6" cy="288.0" r="3.5" fill="white" stroke="#4A90D9" stroke-width="2"/>
<circle cx="93.0" cy="262.0" r="3.5" fill="white" stroke="#4A90D9" stroke-width="2"/>
<circle cx="96.1" cy="205.6" r="3.5" fill="white" stroke="#4A90D9" stroke-width="2"/>
<circle cx="106.7" cy="191.8" r="3.5" fill="white" stroke="#4A90D9" stroke-width="2"/>
<circle cx="110.3" cy="177.3" r="3.5" fill="white" stroke="#4A90D9" stroke-width="2"/>
<circle cx="130.6" cy="159.1" r="3.5" fill="white" stroke="#4A90D9" stroke-width="2"/>
<circle cx="132.2" cy="133.2" r="3.5" fill="white" stroke="#4A90D9" stroke-width="2"/>
<circle cx="170.4" cy="114.6" r="3.5" fill="white" stroke="#4A90D9" stroke-width="2"/>
<circle cx="179.5" cy="84.5" r="3.5" fill="white" stroke="#4A90D9" stroke-width="2"/>
<circle cx="753.4" cy="75.4" r="3.5" fill="white" stroke="#4A90D9" stroke-width="2"/>
<circle cx="760.0" cy="65.0" r="3.5" fill="white" stroke="#4A90D9" stroke-width="2"/>
<text x="80" y="24" font-family="system-ui, sans-serif" font-size="16" font-weight="600" fill="#333">Lines of Code</text>
<line x1="80" y1="40" x2="80" y2="340" stroke="#CCC" stroke-width="1"/><line x1="80" y1="340" x2="760" y2="340" stroke="#CCC" stroke-width="1"/>
</svg>