<svg xmlns="http://www.w3.org/2000/svg" viewBox="0 0 800 400" width="800" height="400">
<rect width="800" height="400" fill="white"/>
<defs><linearGradient id="areaGrad" x1="0" y1="0" x2="0" y2="1"><stop offset="0%" stop-color="#4A90D9" stop-opacity="0.3"/><stop offset="100%" stop-color="#4A90D9" stop-opacity="0.05"/></linearGradient></defs>
<line x1="80" y1="323.9" x2="760" y2="323.9" stroke="#E5E5E5" stroke-width="1"/>
<text x="72" y="327.9" text-anchor="end" font-family="system-ui, sans-serif" font-size="12" fill="#666">127k</text>
<line x1="80" y1="280.6" x2="760" y2="280.6" stroke="#E5E5E5" stroke-width="1"/>
<text x="72" y="284.6" text-anchor="end" font-family="system-ui, sans-serif" font-size="12" fill="#666">128k</text>
<line x1="80" y1="237.2" x2="760" y2="237.2" stroke="#E5E5E5" stroke-width="1"/>
<text x="72" y="241.2" text-anchor="end" font-family="system-ui, sans-serif" font-size="12" fill="#666">129k</text>
<line x1="80" y1="193.9" x2="760" y2="193.9" stroke="#E5E5E5" stroke-width="1"/>
<text x="72" y="197.9" text-anchor="end" font-family="system-ui, sans-serif" font-size="12" fill="#666">130k</text>
<line x1="80" y1="150.5" x2="760" y2="150.5" stroke="#E5E5E5" stroke-width="1"/>
<text x="72" y="154.5" text-anchor="end" font-family="system-ui, sans-serif" font-size="12" fill="#666">131k</text>
<line x1="80" y1="107.1" x2="760" y2="107.1" stroke="#E5E5E5" stroke-width="1"/>
<text x="72" y="111.1" text-anchor="end" font-family="system-ui, sans-serif" font-size="12" fill="#666">132k</text>
<line x1="80" y1="63.8" x2="760" y2="63.8" stroke="#E5E5E5" stroke-width="1"/>
<text x="72" y="67.8" text-anchor="end" font-family="system-ui, sans-serif" font-size="12" fill="#666">133k</text>
<text x="80.0" y="360" text-anchor="middle" font-family="system-ui, sans-serif" font-size="12" fill="#666">Jul 2026</text>
<text x="193.3" y="360" text-anchor="middle" font-family="system-ui, sans-serif" font-size="12" fill="#666">Jul 2026</text>
<text x="306.7" y="360" text-anchor="middle" font-family="system-ui, sans-serif" font-size="12" fill="#666">Jul 2026</text>
<text x="420.0" y="360" text-anchor="middle" font-family="system-ui, sans-serif" font-size="12" fill="#666">Jul 2026</text>
<text x="533.3" y="360" text-anchor="middle" font-family="system-ui, sans-serif" font-size="12" fill="#666">Jul 2026</text>
<text x="646.7" y="360" text-anchor="middle" font-family="system-ui, sans-serif" font-size="12" fill="#666">Jul 2026</text>
<text x="760.0" y="360" text-anchor="middle" font-family="system-ui, sans-serif" font-size="12" fill="#666">Jul 2026</text>
<path d="M80.0,340.0 L80.0,315.0 L82.5,293.0 L92.5,271.8 L95.5,225.8 L105.6,214.5 L109.0,202.7 L128.5,187.9 L129.9,166.8 L166.6,151.6 L175.3,127.1 L724.6,119.7 L730.9,111.2 L733.4,104.0 L744.4,85.7 L760.0,65.0 L760.0,340.0Z" fill="url(#areaGrad)"/>
<path d="M80.0,315.0 L82.5,293.0 L92.5,271.8 L95.5,225.8 L105.6,214.5 L109.0,202.7 L128.5,187.9 L129.9,166.8 L166.6,151.6 L175.3,127.1 L724.6,119.7 L730.9,111.2 L733.4,104.0 L744.4,85.7 L760.0,65.0" fill="none" stroke="#4A90D9" stroke-width="2.5" stroke-linejoin="round" stroke-linecap="round"/>
<circle cx="80.0" cy="315.0" r="3.5" fill="white" stroke="#4A90D9" stroke-width="2"/>
<circle cx="82.5" cy="293.0" r="3.5" fill="white" stroke="#4A90D9" stroke-width="2"/>
<circle cx="92.5" cy="271.8" r="3.5" fill="white" stroke="#4A90D9" stroke-width="2"/>
<circle cx="95.5" cy="225.8" r="3.5" fill="white" stroke="#4A90D9" stroke-width="2"/>
<circle cx="105.6" cy="214.5" r="3.5" fill="white" stroke="#4A90D9" stroke-width="2"/>
<circle cx="109.0" cy="202.7" r="3.5" fill="white" stroke="#4A90D9" stroke-width="2"/>
<circle cx="128.5" cy="187.9" r="3.5" fill="white" stroke="#4A90D9" stroke-width="2"/>
<circle cx="129.9" cy="166.8" r="3.5" fill="white" stroke="#4A90D9" stroke-width="2"/>
<circle cx="166.6" cy="151.6" r="3.5" fill="white" stroke="#4A90D9" stroke-width="2"/>
<circle cx="175.3" cy="127.1" r="3.5" fill="white" stroke="#4A90D9" stroke-width="2"/>
<circle cx="724.6" cy="119.7" r="3.5" fill="white" stroke="#4A90D9" stroke-width="2"/>
<circle cx="730.9" cy="111.2" r="3.5" fill="white" stroke="#4A90D9" stroke-width="2"/>
<circle cx="733.4" cy="104.0" r="3.5" fill="white" stroke="#4A90D9" stroke-width="2"/>
<circle cx="744.4" cy="85.7" r="3.5" fill="white" stroke="#4A90D9" stroke-width="2"/>
<circle cx="760.0" cy="65.0" r="3.5" fill="white" stroke="#4A90D9" stroke-width="2"/>
<text x="80" y="24" font-family="system-ui, sans-serif" font-size="16" font-weight="600" fill="#333">Lines of Code</text>
<line x1="80" y1="40" x2="80" y2="340" stroke="#CCC" stroke-width="1"/><line x1="80" y1="340" x2="760" y2="340" stroke="#CCC" stroke-width="1"/>
</svg>