<svg xmlns="http://www.w3.org/2000/svg" viewBox="0 0 800 400" width="800" height="400">
<rect width="800" height="400" fill="white"/>
<defs><linearGradient id="areaGrad" x1="0" y1="0" x2="0" y2="1"><stop offset="0%" stop-color="#4A90D9" stop-opacity="0.3"/><stop offset="100%" stop-color="#4A90D9" stop-opacity="0.05"/></linearGradient></defs>
<line x1="80" y1="332.0" x2="760" y2="332.0" stroke="#E5E5E5" stroke-width="1"/>
<text x="72" y="336.0" text-anchor="end" font-family="system-ui, sans-serif" font-size="12" fill="#666">100k</text>
<line x1="80" y1="269.6" x2="760" y2="269.6" stroke="#E5E5E5" stroke-width="1"/>
<text x="72" y="273.6" text-anchor="end" font-family="system-ui, sans-serif" font-size="12" fill="#666">200k</text>
<line x1="80" y1="207.2" x2="760" y2="207.2" stroke="#E5E5E5" stroke-width="1"/>
<text x="72" y="211.2" text-anchor="end" font-family="system-ui, sans-serif" font-size="12" fill="#666">300k</text>
<line x1="80" y1="144.8" x2="760" y2="144.8" stroke="#E5E5E5" stroke-width="1"/>
<text x="72" y="148.8" text-anchor="end" font-family="system-ui, sans-serif" font-size="12" fill="#666">400k</text>
<line x1="80" y1="82.4" x2="760" y2="82.4" stroke="#E5E5E5" stroke-width="1"/>
<text x="72" y="86.4" text-anchor="end" font-family="system-ui, sans-serif" font-size="12" fill="#666">500k</text>
<text x="80.0" y="360" text-anchor="middle" font-family="system-ui, sans-serif" font-size="12" fill="#666">Jul 2026</text>
<text x="193.3" y="360" text-anchor="middle" font-family="system-ui, sans-serif" font-size="12" fill="#666">Jul 2026</text>
<text x="306.7" y="360" text-anchor="middle" font-family="system-ui, sans-serif" font-size="12" fill="#666">Jul 2026</text>
<text x="420.0" y="360" text-anchor="middle" font-family="system-ui, sans-serif" font-size="12" fill="#666">Jul 2026</text>
<text x="533.3" y="360" text-anchor="middle" font-family="system-ui, sans-serif" font-size="12" fill="#666">Jul 2026</text>
<text x="646.7" y="360" text-anchor="middle" font-family="system-ui, sans-serif" font-size="12" fill="#666">Jul 2026</text>
<text x="760.0" y="360" text-anchor="middle" font-family="system-ui, sans-serif" font-size="12" fill="#666">Jul 2026</text>
<path d="M80.0,340.0 L80.0,315.0 L80.1,314.7 L80.6,314.4 L80.8,313.7 L81.3,313.6 L81.5,313.4 L82.5,313.2 L82.6,312.9 L84.5,312.6 L84.9,312.3 L113.5,312.2 L113.8,312.1 L113.9,312.0 L114.5,311.7 L115.3,311.4 L115.5,310.7 L115.8,310.5 L115.9,310.3 L121.1,310.0 L126.1,309.6 L126.2,309.4 L126.5,309.0 L128.7,308.2 L129.3,308.0 L130.1,307.9 L611.9,307.6 L614.1,306.9 L751.2,306.7 L751.3,306.6 L751.9,306.5 L753.3,67.0 L753.9,66.8 L754.6,66.7 L754.7,66.6 L754.7,66.5 L754.9,65.4 L758.8,65.3 L759.8,65.1 L760.0,65.0 L760.0,340.0Z" fill="url(#areaGrad)"/>
<path d="M80.0,315.0 L80.1,314.7 L80.6,314.4 L80.8,313.7 L81.3,313.6 L81.5,313.4 L82.5,313.2 L82.6,312.9 L84.5,312.6 L84.9,312.3 L113.5,312.2 L113.8,312.1 L113.9,312.0 L114.5,311.7 L115.3,311.4 L115.5,310.7 L115.8,310.5 L115.9,310.3 L121.1,310.0 L126.1,309.6 L126.2,309.4 L126.5,309.0 L128.7,308.2 L129.3,308.0 L130.1,307.9 L611.9,307.6 L614.1,306.9 L751.2,306.7 L751.3,306.6 L751.9,306.5 L753.3,67.0 L753.9,66.8 L754.6,66.7 L754.7,66.6 L754.7,66.5 L754.9,65.4 L758.8,65.3 L759.8,65.1 L760.0,65.0" fill="none" stroke="#4A90D9" stroke-width="2.5" stroke-linejoin="round" stroke-linecap="round"/>
<circle cx="80.0" cy="315.0" r="3.5" fill="white" stroke="#4A90D9" stroke-width="2"/>
<circle cx="80.1" cy="314.7" r="3.5" fill="white" stroke="#4A90D9" stroke-width="2"/>
<circle cx="80.6" cy="314.4" r="3.5" fill="white" stroke="#4A90D9" stroke-width="2"/>
<circle cx="80.8" cy="313.7" r="3.5" fill="white" stroke="#4A90D9" stroke-width="2"/>
<circle cx="81.3" cy="313.6" r="3.5" fill="white" stroke="#4A90D9" stroke-width="2"/>
<circle cx="81.5" cy="313.4" r="3.5" fill="white" stroke="#4A90D9" stroke-width="2"/>
<circle cx="82.5" cy="313.2" r="3.5" fill="white" stroke="#4A90D9" stroke-width="2"/>
<circle cx="82.6" cy="312.9" r="3.5" fill="white" stroke="#4A90D9" stroke-width="2"/>
<circle cx="84.5" cy="312.6" r="3.5" fill="white" stroke="#4A90D9" stroke-width="2"/>
<circle cx="84.9" cy="312.3" r="3.5" fill="white" stroke="#4A90D9" stroke-width="2"/>
<circle cx="113.5" cy="312.2" r="3.5" fill="white" stroke="#4A90D9" stroke-width="2"/>
<circle cx="113.8" cy="312.1" r="3.5" fill="white" stroke="#4A90D9" stroke-width="2"/>
<circle cx="113.9" cy="312.0" r="3.5" fill="white" stroke="#4A90D9" stroke-width="2"/>
<circle cx="114.5" cy="311.7" r="3.5" fill="white" stroke="#4A90D9" stroke-width="2"/>
<circle cx="115.3" cy="311.4" r="3.5" fill="white" stroke="#4A90D9" stroke-width="2"/>
<circle cx="115.5" cy="310.7" r="3.5" fill="white" stroke="#4A90D9" stroke-width="2"/>
<circle cx="115.8" cy="310.5" r="3.5" fill="white" stroke="#4A90D9" stroke-width="2"/>
<circle cx="115.9" cy="310.3" r="3.5" fill="white" stroke="#4A90D9" stroke-width="2"/>
<circle cx="121.1" cy="310.0" r="3.5" fill="white" stroke="#4A90D9" stroke-width="2"/>
<circle cx="126.1" cy="309.6" r="3.5" fill="white" stroke="#4A90D9" stroke-width="2"/>
<circle cx="126.2" cy="309.4" r="3.5" fill="white" stroke="#4A90D9" stroke-width="2"/>
<circle cx="126.5" cy="309.0" r="3.5" fill="white" stroke="#4A90D9" stroke-width="2"/>
<circle cx="128.7" cy="308.2" r="3.5" fill="white" stroke="#4A90D9" stroke-width="2"/>
<circle cx="129.3" cy="308.0" r="3.5" fill="white" stroke="#4A90D9" stroke-width="2"/>
<circle cx="130.1" cy="307.9" r="3.5" fill="white" stroke="#4A90D9" stroke-width="2"/>
<circle cx="611.9" cy="307.6" r="3.5" fill="white" stroke="#4A90D9" stroke-width="2"/>
<circle cx="614.1" cy="306.9" r="3.5" fill="white" stroke="#4A90D9" stroke-width="2"/>
<circle cx="751.2" cy="306.7" r="3.5" fill="white" stroke="#4A90D9" stroke-width="2"/>
<circle cx="751.3" cy="306.6" r="3.5" fill="white" stroke="#4A90D9" stroke-width="2"/>
<circle cx="751.9" cy="306.5" r="3.5" fill="white" stroke="#4A90D9" stroke-width="2"/>
<circle cx="753.3" cy="67.0" r="3.5" fill="white" stroke="#4A90D9" stroke-width="2"/>
<circle cx="753.9" cy="66.8" r="3.5" fill="white" stroke="#4A90D9" stroke-width="2"/>
<circle cx="754.6" cy="66.7" r="3.5" fill="white" stroke="#4A90D9" stroke-width="2"/>
<circle cx="754.7" cy="66.6" r="3.5" fill="white" stroke="#4A90D9" stroke-width="2"/>
<circle cx="754.7" cy="66.5" r="3.5" fill="white" stroke="#4A90D9" stroke-width="2"/>
<circle cx="754.9" cy="65.4" r="3.5" fill="white" stroke="#4A90D9" stroke-width="2"/>
<circle cx="758.8" cy="65.3" r="3.5" fill="white" stroke="#4A90D9" stroke-width="2"/>
<circle cx="759.8" cy="65.1" r="3.5" fill="white" stroke="#4A90D9" stroke-width="2"/>
<circle cx="760.0" cy="65.0" r="3.5" fill="white" stroke="#4A90D9" stroke-width="2"/>
<text x="80" y="24" font-family="system-ui, sans-serif" font-size="16" font-weight="600" fill="#333">Lines of Code</text>
<line x1="80" y1="40" x2="80" y2="340" stroke="#CCC" stroke-width="1"/><line x1="80" y1="340" x2="760" y2="340" stroke="#CCC" stroke-width="1"/>
</svg>