<svg xmlns="http://www.w3.org/2000/svg" viewBox="0 0 800 400" width="800" height="400">
<rect width="800" height="400" fill="white"/>
<defs><linearGradient id="areaGrad" x1="0" y1="0" x2="0" y2="1"><stop offset="0%" stop-color="#4A90D9" stop-opacity="0.3"/><stop offset="100%" stop-color="#4A90D9" stop-opacity="0.05"/></linearGradient></defs>
<line x1="80" y1="286.5" x2="760" y2="286.5" stroke="#E5E5E5" stroke-width="1"/>
<text x="72" y="290.5" text-anchor="end" font-family="system-ui, sans-serif" font-size="12" fill="#666">128k</text>
<line x1="80" y1="214.6" x2="760" y2="214.6" stroke="#E5E5E5" stroke-width="1"/>
<text x="72" y="218.6" text-anchor="end" font-family="system-ui, sans-serif" font-size="12" fill="#666">130k</text>
<line x1="80" y1="142.8" x2="760" y2="142.8" stroke="#E5E5E5" stroke-width="1"/>
<text x="72" y="146.8" text-anchor="end" font-family="system-ui, sans-serif" font-size="12" fill="#666">132k</text>
<line x1="80" y1="71.0" x2="760" y2="71.0" stroke="#E5E5E5" stroke-width="1"/>
<text x="72" y="75.0" text-anchor="end" font-family="system-ui, sans-serif" font-size="12" fill="#666">134k</text>
<text x="80.0" y="360" text-anchor="middle" font-family="system-ui, sans-serif" font-size="12" fill="#666">Jul 2026</text>
<text x="193.3" y="360" text-anchor="middle" font-family="system-ui, sans-serif" font-size="12" fill="#666">Jul 2026</text>
<text x="306.7" y="360" text-anchor="middle" font-family="system-ui, sans-serif" font-size="12" fill="#666">Jul 2026</text>
<text x="420.0" y="360" text-anchor="middle" font-family="system-ui, sans-serif" font-size="12" fill="#666">Jul 2026</text>
<text x="533.3" y="360" text-anchor="middle" font-family="system-ui, sans-serif" font-size="12" fill="#666">Jul 2026</text>
<text x="646.7" y="360" text-anchor="middle" font-family="system-ui, sans-serif" font-size="12" fill="#666">Jul 2026</text>
<text x="760.0" y="360" text-anchor="middle" font-family="system-ui, sans-serif" font-size="12" fill="#666">Jul 2026</text>
<path d="M80.0,340.0 L80.0,315.0 L82.5,296.8 L92.4,279.2 L95.4,241.1 L105.4,231.8 L108.8,222.0 L128.2,209.7 L129.6,192.2 L166.0,179.6 L174.7,159.3 L720.5,153.2 L726.8,146.1 L729.2,140.2 L740.1,125.1 L755.7,107.9 L760.0,65.0 L760.0,340.0Z" fill="url(#areaGrad)"/>
<path d="M80.0,315.0 L82.5,296.8 L92.4,279.2 L95.4,241.1 L105.4,231.8 L108.8,222.0 L128.2,209.7 L129.6,192.2 L166.0,179.6 L174.7,159.3 L720.5,153.2 L726.8,146.1 L729.2,140.2 L740.1,125.1 L755.7,107.9 L760.0,65.0" fill="none" stroke="#4A90D9" stroke-width="2.5" stroke-linejoin="round" stroke-linecap="round"/>
<circle cx="80.0" cy="315.0" r="3.5" fill="white" stroke="#4A90D9" stroke-width="2"/>
<circle cx="82.5" cy="296.8" r="3.5" fill="white" stroke="#4A90D9" stroke-width="2"/>
<circle cx="92.4" cy="279.2" r="3.5" fill="white" stroke="#4A90D9" stroke-width="2"/>
<circle cx="95.4" cy="241.1" r="3.5" fill="white" stroke="#4A90D9" stroke-width="2"/>
<circle cx="105.4" cy="231.8" r="3.5" fill="white" stroke="#4A90D9" stroke-width="2"/>
<circle cx="108.8" cy="222.0" r="3.5" fill="white" stroke="#4A90D9" stroke-width="2"/>
<circle cx="128.2" cy="209.7" r="3.5" fill="white" stroke="#4A90D9" stroke-width="2"/>
<circle cx="129.6" cy="192.2" r="3.5" fill="white" stroke="#4A90D9" stroke-width="2"/>
<circle cx="166.0" cy="179.6" r="3.5" fill="white" stroke="#4A90D9" stroke-width="2"/>
<circle cx="174.7" cy="159.3" r="3.5" fill="white" stroke="#4A90D9" stroke-width="2"/>
<circle cx="720.5" cy="153.2" r="3.5" fill="white" stroke="#4A90D9" stroke-width="2"/>
<circle cx="726.8" cy="146.1" r="3.5" fill="white" stroke="#4A90D9" stroke-width="2"/>
<circle cx="729.2" cy="140.2" r="3.5" fill="white" stroke="#4A90D9" stroke-width="2"/>
<circle cx="740.1" cy="125.1" r="3.5" fill="white" stroke="#4A90D9" stroke-width="2"/>
<circle cx="755.7" cy="107.9" r="3.5" fill="white" stroke="#4A90D9" stroke-width="2"/>
<circle cx="760.0" cy="65.0" r="3.5" fill="white" stroke="#4A90D9" stroke-width="2"/>
<text x="80" y="24" font-family="system-ui, sans-serif" font-size="16" font-weight="600" fill="#333">Lines of Code</text>
<line x1="80" y1="40" x2="80" y2="340" stroke="#CCC" stroke-width="1"/><line x1="80" y1="340" x2="760" y2="340" stroke="#CCC" stroke-width="1"/>
</svg>